<svg xmlns="http://www.w3.org/2000/svg"><symbol viewBox="0 0 32 32" id="icon-camera2"><title>camera2</title><path d="M15.2 24C11.23 24 8 20.77 8 16.8s3.23-7.2 7.2-7.2 7.2 3.23 7.2 7.2-3.23 7.2-7.2 7.2zm0-12.8c-3.088 0-5.6 2.512-5.6 5.6s2.512 5.6 5.6 5.6 5.6-2.512 5.6-5.6-2.512-5.6-5.6-5.6z"/><path d="M28 28.8H2.4A2.403 2.403 0 0 1 0 26.4v-16C0 9.077 1.077 8 2.4 8h2.4c.664 0 1.696-.427 2.166-.898l.938-.938c.779-.779 2.197-1.366 3.298-1.366h8c1.101 0 2.518.587 3.298 1.366l.938.938c.469.469 1.502.898 2.166.898h2.4c1.323 0 2.4 1.077 2.4 2.4v16c0 1.323-1.077 2.4-2.4 2.4zM2.4 9.6a.8.8 0 0 0-.8.8v16a.8.8 0 0 0 .8.8H28a.8.8 0 0 0 .8-.8v-16a.8.8 0 0 0-.8-.8h-2.4c-1.101 0-2.518-.587-3.298-1.366l-.938-.938c-.469-.469-1.502-.898-2.166-.898h-8c-.664 0-1.696.427-2.166.898l-.938.938C7.315 9.013 5.899 9.6 4.796 9.6h-2.4z"/></symbol><symbol viewBox="0 0 30 32" id="icon-key-up"><title>key-up</title><path d="M4.706 28.424C6.965 30.683 9.788 32 12.235 32c1.506 0 2.824-.376 3.765-1.506 2.259-2.259 1.694-6.588-1.129-9.976L28.612 6.777c.376-.376.376-.941 0-1.506-.376-.376-.941-.376-1.506 0l-.753.753-2.071-2.071.565-.565c.376-.376.376-.941 0-1.506-.376-.376-.941-.376-1.506 0L22.212 3.2c-.188.188-.188.188-.188.376-.188.376 0 .753.188 1.129l2.824 2.635-1.882 1.882-2.635-2.824c-.376-.376-.753-.376-1.129-.188-.188 0-.188.188-.376.188l-1.318 1.129c-.376.376-.376.941 0 1.506.376.376.941.376 1.506 0l.565-.565 2.071 2.071-8.094 8.094c-2.259-2.071-4.894-3.2-7.153-3.2-1.506 0-2.824.376-3.765 1.506-2.635 2.824-1.694 7.906 1.882 11.482zm-.565-9.789c.753-.753 1.694-.941 2.447-.941 1.882 0 4.329 1.129 6.024 3.012 2.824 2.824 3.765 6.776 2.071 8.471-.753.753-1.694.941-2.447.941-1.882 0-4.329-1.129-6.024-3.012-3.012-2.824-3.953-6.776-2.071-8.471z"/></symbol><symbol viewBox="0 0 32 32" id="icon-key"><title>key</title><path d="M24 0a8 8 0 0 0-6.539 12.608L.235 29.834a.8.8 0 0 0 1.132 1.131l1.834-1.834 2.634 2.634a.8.8 0 1 0 1.132-1.131L4.333 28l1.269-1.269 2.634 2.634a.8.8 0 1 0 1.132-1.131L6.734 25.6l11.781-11.781A8 8 0 1 0 24.003 0zm4.525 12.525C27.315 13.735 25.709 14.4 24 14.4s-3.317-.666-4.525-1.875C18.265 11.315 17.6 9.709 17.6 8s.666-3.317 1.875-4.525C20.685 2.265 22.291 1.6 24 1.6s3.317.666 4.525 1.875C29.735 4.685 30.4 6.291 30.4 8s-.666 3.317-1.875 4.525z"/></symbol><symbol viewBox="0 0 30 32" id="icon-phone"><title>phone</title><path d="M27.763 9.891c-.793 2.576-2.219 5.154-4.236 7.658-1.861 2.308-5.613 6.578-9.832 9.212-3.975 2.481-7.157 2.529-9.779.142l-.001.001-.006-.006-.005-.004.001-.001-1.528-1.482a1.362 1.362 0 0 1 0-1.922l3.82-3.818a1.356 1.356 0 0 1 1.872-.04l1.871 1.86.429.429c.331.331.907.347 1.3.091a33.672 33.672 0 0 0 9.909-9.931.988.988 0 0 0-.131-1.241l-.745-.743.001-.001-1.505-1.503c-.513-.513-.515-1.405 0-1.922l3.818-3.82a1.362 1.362 0 0 1 1.922 0l.105.105 1.423 1.439-.002.002c1.67 1.771 2.008 3.202 1.299 5.495zm-.194-7.212l-1.231-1.228a3.345 3.345 0 0 0-4.724 0l-3.818 3.82c-1.262 1.262-1.262 3.458 0 4.724l1.674 1.672a31.646 31.646 0 0 1-8.276 8.279l-.872-.872-.805-.803a3.339 3.339 0 0 0-4.722 0l-3.82 3.818a3.345 3.345 0 0 0 0 4.724l.803.8.002.004.006.004.476.476c2.284 2.287 6.305 4.201 12.483.343 4.464-2.786 8.385-7.24 10.325-9.648 2.175-2.701 3.719-5.5 4.587-8.316.287-.929.434-1.781.434-2.585 0-1.877-.804-3.492-2.522-5.211z"/></symbol></svg>